<?xml version="1.0" encoding="utf-8"?>
<svg viewBox="-0.0192 5.4 71.7837 72.3069" xmlns="http://www.w3.org/2000/svg">
  <defs>
    <style type="text/css">
      .st0{fill:#436AB2;}
    </style>
  </defs>
  <g transform="matrix(1, 0, 0, 1, 1.4210854715202004e-14, 0)">
    <g>
      <path class="st0" d="M28.2,30.3c0.2-0.2,0.3-0.5,0.4-0.7c0.1-0.3,0.1-0.3,0.4-0.3s0.6,0,1,0.1c0.3,0.1,0.3,0.1,0.3,0.4 c-0.1,0.4-0.3,0.8-0.4,1.2c-0.8,2.2-1.6,4.3-2.4,6.5c-0.6,1.8-0.9,3.6-0.7,5.5c0,0.5,0.1,1.1,0.2,1.6c0,0.1,0,0.2,0.1,0.3 c0.1-0.2,0.1-0.5,0.1-0.7c0.2-1.4,0.3-2.7,0.5-4.1c0.1-1,0.4-1.9,1-2.8c1.1-1.5,2.5-2.3,4.3-2.4c3.3,0,6.7,0,10,0 c1.6,0,2.9,0.7,3.9,1.9c0.4,0.6,0.7,1.2,0.9,1.9c0.4,1.6,0.8,3.3,1.2,4.9c0.1,0.4,0.1,0.8,0.2,1.2c0.1,0.5,0,0.9-0.3,1.3 c-0.2,0.3-0.5,0.6-0.7,0.9c-0.4,0.5-0.8,0.9-1,1.5c-0.7,1.7-0.5,3.4,0.7,4.9c0.3,0.4,0.5,0.7,0.4,1.2c0,0.4-0.2,0.6-0.5,0.8 c-0.2,0.1-0.3,0.1-0.5,0.2c-0.4,0.2-0.8,0.4-1.1,0.8c-0.2,0.2-0.3,0.4-0.3,0.7c-0.1,0.6-0.1,1.3-0.1,1.9c0,2.3,0,4.6,0,6.9 c0,0.3-0.1,0.5-0.3,0.6s-0.3,0.1-0.5,0.1s-0.4,0-0.5,0s-0.2,0.1-0.2,0.3c0,0.2,0,0.3,0,0.5c0,2.2,0,4.4,0,6.6c0,0.4,0,0.8,0,1.2 c-0.1,1.3-1.3,2.4-2.6,2.4c-2.4,0-4.7,0-7.1,0c-0.6,0-1-0.2-1.4-0.5c-0.6-0.5-1-1.2-1-2c0-0.7,0-1.3,0-2c0-1.9,0-3.9,0-5.8 c0-0.1,0-0.1,0-0.2c0-0.4-0.1-0.5-0.4-0.5c-0.4-0.1-0.8-0.1-1.3,0c-0.3,0-0.6,0-0.9-0.2c-0.7-0.4-1-1-0.9-1.7 c0.1-1.4,0.3-2.7,0.5-4.1c0.1-0.7,0.2-1.4,0.3-2.2v-0.1c0-0.7-0.1-0.9-0.7-1.1c-0.2-0.1-0.4-0.1-0.6-0.2c-0.1,0-0.2-0.1-0.3-0.1 c-1-0.4-1.6-1.3-1.6-2.5c0-0.6,0.1-1.1,0.2-1.7c0.1-0.9,0.3-1.8,0.3-2.7c0-0.6,0-1.2-0.1-1.7c-0.1-1.1-0.2-2.1-0.3-3.2 c-0.1-0.6-0.1-1.2-0.2-1.8c-0.1-1-0.5-1.9-1-2.7c-0.8-1.4-1.8-2.6-2.8-3.8s-2-2.4-3-3.6c-0.2-0.3-0.5-0.5-0.6-0.9 c-0.1-0.4,0-0.8,0.3-1c0.2-0.2,0.4-0.3,0.7-0.4c0.4-0.1,0.7,0,0.9,0.4c0.1,0.1,0.1,0.2,0.1,0.3c0,0,0,0.1,0.1,0.1l0.1-0.1 c0-0.2,0-0.5,0-0.7c0-0.3,0-0.3,0.3-0.5c0.4-0.2,0.8-0.3,1.2-0.4c1.1-0.3,2.2-0.5,3.3-0.6c0.8-0.1,1.6-0.1,2.4-0.1 c0.1,0,0.2,0.1,0.3,0.2c0.1,0.2,0.2,0.3,0.2,0.5C28.1,30,28.1,30.1,28.2,30.3z M37.3,52.9L37.3,52.9c-0.8,0-1.6,0-2.4,0 c-1.8,0-3.7,0-5.5,0c-0.2,0-0.4,0-0.5,0.1c-0.3,0.1-0.6,0.4-0.6,0.7s0.2,0.6,0.5,0.7c0.2,0.1,0.5,0.1,0.7,0.1c0.3,0,0.5,0,0.8,0 c0.8,0.1,1.5,0.6,1.6,1.5c0,0.2,0,0.4,0,0.7c-0.1,0.5-0.1,1.1-0.2,1.6c-0.3,1.2,0.6,2.6,1.4,3c0.3,0.2,0.7,0.4,1.1,0.4 c0.3,0,0.6,0.1,0.8,0.1c1.9,0,3.8,0,5.8,0c1.5-0.1,2.6-1.5,2.7-2.5c0-0.4,0-0.9,0-1.3c-0.1-0.6-0.2-1.1-0.3-1.7 c-0.1-0.6,0.2-1,0.6-1.3c0.3-0.2,0.7-0.3,1-0.3s0.5,0,0.8-0.1c0.4,0,0.6-0.3,0.7-0.7c0-0.4-0.2-0.7-0.6-0.8c-0.3-0.1-0.6,0-1,0 C42.3,52.9,39.8,52.9,37.3,52.9z"/>
    </g>
    <g>
      <path class="st0" d="M35.8,5.5c1.6,0,3.1,0.3,4.5,1.1c0.5,0.2,0.9,0.5,1.3,0.9c1.6,1.3,3.1,2.6,4.7,4c2.5,2.1,5,4.3,7.5,6.4 c1.1,0.9,2.1,1.8,3.2,2.7c1.1,0.9,2.2,1.9,3.3,2.8c1.9,1.6,3.8,3.2,5.7,4.8c1.5,1.3,3.1,2.6,4.6,4c0.2,0.1,0.3,0.3,0.5,0.4 c1.2,1.2,0.7,3.5-0.9,4.2c-1,0.4-1.9,0.2-2.7-0.4c-0.4-0.3-0.9-0.7-1.3-1.1c-1.5-1.3-3.1-2.6-4.6-3.9c-1.5-1.3-3.1-2.5-4.5-3.8 c-1.2-1.1-2.5-2-3.7-3.1c-1.1-0.9-2.2-1.8-3.3-2.8c-1.3-1.1-2.6-2.2-3.9-3.4c-1.9-1.6-3.7-3.2-5.6-4.8c-0.7-0.6-1.3-1.2-2.1-1.6 c-0.8-0.5-1.7-0.8-2.6-0.7c-0.8,0-1.6,0.3-2.3,0.7c-0.5,0.3-0.9,0.6-1.3,1c-0.7,0.7-1.5,1.3-2.3,2c-1.5,1.3-3,2.5-4.4,3.8 c-1.6,1.3-3.1,2.6-4.7,3.9c-1.5,1.3-3.1,2.6-4.6,3.9c-0.9,0.8-1.8,1.5-2.7,2.2c-1.7,1.5-3.4,2.9-5.2,4.4c-1.2,1-2.4,2.1-3.6,3.1 c-0.5,0.4-1,0.8-1.7,0.9c-0.3,0.1-0.6,0.1-0.9,0c-1.2-0.5-2-1.2-2.2-2.5c-0.1-0.8,0.2-1.6,0.7-2.2c0.3-0.3,0.7-0.7,1.1-1 c1.2-1,2.4-2.1,3.7-3.1c1.4-1.2,2.7-2.3,4.1-3.5c2.4-2.1,4.9-4.2,7.3-6.2c1.4-1.2,2.9-2.4,4.3-3.6c1.8-1.6,3.7-3.2,5.6-4.8 c1-0.8,1.9-1.7,2.9-2.5c1.2-1,2.5-1.7,4-2.1c0.3-0.1,0.6-0.1,0.9-0.2C35,5.5,35.4,5.4,35.8,5.5z"/>
    </g>
    <g>
      <path class="st0" d="M25.6,60c0,1.4,0,2.8,0,4.2c0,0.6-0.2,1.1-0.5,1.6c-0.4,0.5-0.8,0.9-1.4,1.2c-0.6,0.2-0.5,0.3-0.5,0.9 c0,0.7,0,1.5,0,2.2c0,1.3,0,2.6,0,3.9c0,0.5,0,1.1-0.1,1.6c-0.2,0.9-0.8,1.6-1.7,2c-0.3,0.1-0.6,0.1-1,0.1c-0.7,0-1.4,0-2.1,0 c-1.2,0.1-2.4-0.9-2.5-2.2c-0.1-0.5-0.1-1-0.1-1.5c0-2,0-4,0-6c0-0.6-0.2-1-0.7-1.2c-0.4-0.2-0.7-0.4-1-0.7 c-0.4-0.5-0.7-1-0.7-1.6c0-0.3,0-0.5,0-0.8c0-2.7,0-5.4,0-8c0-0.5,0.1-1,0.3-1.4c0.5-1,1.3-1.5,2.4-1.5c1.6-0.1,3.2-0.1,4.8,0 c0.6,0,1.1,0,1.7,0c1.5,0,3,1.1,3,3c0,1.1,0,2.3,0,3.4C25.6,59.4,25.6,59.7,25.6,60z"/>
    </g>
    <g>
      <path class="st0" d="M56.4,62.1c0,1.4,0,2.7,0,4.1c0,0.2,0,0.4,0,0.5c-0.1,0.6-0.4,1-1,1.2C55.2,68,55,68,54.8,68 c-0.2,0.1-0.3,0.2-0.3,0.4c0,0.2,0,0.3,0.1,0.5c0.5,1.2,1,2.3,1.5,3.5c0.1,0.3,0.2,0.5,0.3,0.8c0.4,0.8-0.2,1.5-1,1.6 c-0.1,0-0.1,0-0.2,0c-0.4,0-0.6,0.2-0.8,0.4c-0.1,0.1-0.2,0.2-0.2,0.4c0,0.2,0,0.3-0.1,0.5c-0.1,0.6-0.6,1-1.2,1 c-1.1,0-2.2,0-3.3,0c-0.6,0-0.8-0.2-1-0.8c-0.1-0.2-0.1-0.5-0.2-0.7c-0.1-0.4-0.3-0.7-0.7-0.8c-0.2,0-0.4-0.1-0.6-0.1 c-0.6-0.1-1-0.7-0.9-1.4c0-0.2,0.1-0.3,0.2-0.5c0.6-1.3,1.1-2.6,1.7-3.9c0.1-0.2,0.1-0.3,0.2-0.5c0.1-0.4-0.1-0.6-0.4-0.6 c-0.1,0-0.2,0-0.3-0.1c-0.6-0.1-1-0.5-1.1-1.1c0-0.2,0-0.4,0-0.7c0-2.9,0-5.9,0-8.8c0-0.3,0.1-0.6,0.3-0.8s0.4-0.4,0.7-0.4 c0.2,0,0.4,0,0.6,0c2.3,0,4.7,0,7,0h0.1c0.7,0,1.1,0.4,1.2,1c0,0.2,0.1,0.5,0.1,0.7C56.4,59.3,56.4,60.7,56.4,62.1L56.4,62.1z"/>
    </g>
    <g>
      <path class="st0" d="M37.9,33.7c-2.8,0.2-5.8-2.2-6.3-5.4c-0.2-1.2-0.1-2.4,0.3-3.5c0.6-1.4,1.5-2.5,2.8-3.2 c0.7-0.4,1.4-0.7,2.2-0.8c0.5-0.1,1-0.1,1.6-0.1c0.4,0,0.7,0,1.1,0.1c1.1,0.2,2.1,0.8,2.9,1.6c1.1,1,1.8,2.3,2,3.8 c0.3,1.6,0,3.2-0.8,4.5s-1.9,2.3-3.4,2.8C39.4,33.6,38.6,33.7,37.9,33.7z"/>
    </g>
    <g>
      <path class="st0" d="M24.6,46.5c0,1.1-0.3,2-0.9,2.8c-0.8,1.3-2,2-3.5,2.2c-2.8,0.4-5.4-1.6-5.8-4.3c-0.2-1.7,0.2-3.1,1.3-4.3 c0.8-0.8,1.8-1.3,2.9-1.6c2.6-0.5,5.6,1.6,5.8,4.4C24.6,46.1,24.6,46.3,24.6,46.5z"/>
    </g>
    <g>
      <path class="st0" d="M58.3,11.3c0,1.1,0,2.1,0,3.2c0,0.2,0,0.5,0,0.7c-0.2,1.4-1.8,2.2-3.1,1.8c-0.3-0.1-0.5-0.2-0.7-0.4 c-0.6-0.5-1.1-0.9-1.6-1.4c-0.6-0.6-1.2-1.1-1.8-1.6L51,13.5c-0.7-0.6-1-1.3-1-2.2c0-1.2,0-2.3,0-3.5c0-1.3,1.1-2.3,2.3-2.3 s2.4,0,3.5,0c0.7,0,1.3,0.3,1.8,0.8c0.4,0.4,0.6,1,0.6,1.6C58.3,8.9,58.3,10.1,58.3,11.3L58.3,11.3z"/>
    </g>
    <g>
      <path class="st0" d="M55.5,50.4c0,2-1.5,4-4.2,4c-2.6-0.2-4-2-4-4.1c0-2.6,2.1-4.1,4.2-4.1C53.1,46.1,55.6,47.7,55.5,50.4z"/>
    </g>
  </g>
</svg>
